<svg width="50" height="30" viewBox="0 0 50 30" fill="none" xmlns="http://www.w3.org/2000/svg">
<g clip-path="url(#clip0_737_2538)">
<rect width="50" height="30" rx="2" fill="#017EFE"/>
<g clip-path="url(#clip1_737_2538)">
<path d="M45.2544 20.2363L49.9998 25.2678V23.1673L47.2572 20.2433L49.9998 17.3542V15.2048L45.2544 20.2363Z" fill="#ECF0F3"/>
<path d="M45.6941 26.7054H49.9998V25.2678H46.4128L43.4819 22.0368L40.537 25.2678H28.5479V15.2746H37.0617V17.5845H31.2695V19.1477H36.9151V21.4017H31.2695V22.9509H37.0617V25.2608L41.7652 20.2642L37.0547 15.2048H40.6416L43.5377 18.4638L46.4687 15.2048H49.9998V13.8231H47.2991V6.80272L44.7241 13.8231H42.3235L39.7554 6.82365V13.8231H33.9842L33.1467 11.8202H28.5479L27.7175 13.8231H24.7167L29.0713 3.8229H32.6443L37.0547 13.8091V3.8229H41.3255L43.5517 10.0547L45.7987 3.8229H49.9998V2.38534H44.731L43.5447 5.7071L42.3653 2.38534H35.5822V6.79574L33.6213 2.38534H28.1362L22.4348 15.2746H27.0266V26.7054H41.2418L43.4679 24.2559L45.6941 26.7054Z" fill="#ECF0F3"/>
<path d="M29.483 9.57318L30.8438 6.30027L32.1977 9.57318H29.483Z" fill="#ECF0F3"/>
</g>
</g>
<defs>
<clipPath id="clip0_737_2538">
<rect width="50" height="30" rx="2" fill="white"/>
</clipPath>
<clipPath id="clip1_737_2538">
<rect width="40.1961" height="35.7298" fill="white" transform="translate(9.80371 -3.36493)"/>
</clipPath>
</defs>
</svg>
