<svg width="50" height="30" viewBox="0 0 50 30" fill="none" xmlns="http://www.w3.org/2000/svg">
<rect width="50" height="30" rx="2" fill="#ECF0F3"/>
<rect width="50" height="30" rx="2" fill="url(#paint0_linear_775_2536)"/>
<g clip-path="url(#clip0_775_2536)">
<path d="M13.3594 12.0977C14.9628 5.66586 21.4703 1.756 27.9023 3.35938C34.3251 4.95335 38.244 11.4703 36.6406 17.9023C35.0371 24.3339 28.5211 28.2437 22.0986 26.6406C15.6664 25.0373 11.756 18.5204 13.3594 12.0977ZM24.3955 9.55762C24.105 9.49201 23.8235 9.42693 23.5518 9.36133V9.35156L21.7324 8.90137L21.3857 10.3076C21.3857 10.3076 22.3605 10.5326 22.3418 10.542C22.8759 10.6732 22.9698 11.0294 22.9512 11.3105L22.333 13.7764C22.3705 13.7857 22.4175 13.7952 22.4736 13.8232C22.4268 13.8139 22.3798 13.8048 22.333 13.7861L21.4707 17.2363C21.405 17.3957 21.2356 17.6386 20.8701 17.5449C20.8795 17.5637 19.9141 17.3105 19.9141 17.3105L19.2578 18.8203L20.9736 19.252C21.2923 19.3363 21.6018 19.4108 21.9111 19.4951L21.3672 21.6797L22.6797 22.0078L23.2236 19.8418C23.5799 19.9355 23.936 20.0299 24.2734 20.1143L23.7393 22.2705L25.0518 22.5986L25.5957 20.4141C27.8455 20.8358 29.5332 20.6671 30.2363 18.6328C30.8081 17.0016 30.2076 16.0543 29.0264 15.4355C29.8982 15.2387 30.5451 14.6672 30.7139 13.5049C30.9482 11.9111 29.7391 11.0484 28.0703 10.4766L28.6143 8.31055L27.3018 7.98242L26.7764 10.0918C26.4296 10.0074 26.073 9.92361 25.7168 9.84863L26.2422 7.72949L24.9297 7.40137L24.3955 9.55762ZM24.377 15.3516C25.268 15.5766 28.1363 16.0176 27.7051 17.7236C27.3019 19.3548 24.5449 18.473 23.6543 18.248L24.377 15.3516ZM25.3701 11.3955C26.1107 11.583 28.5016 11.9297 28.1172 13.4766C27.7422 14.9672 25.4545 14.208 24.7139 14.0205L25.3701 11.3955Z" fill="white"/>
</g>
<defs>
<linearGradient id="paint0_linear_775_2536" x1="2498.65" y1="-0.72" x2="2498.65" y2="2999.7" gradientUnits="userSpaceOnUse">
<stop stop-color="#F9AA4B"/>
<stop offset="1" stop-color="#F7931A"/>
</linearGradient>
<clipPath id="clip0_775_2536">
<rect width="24" height="24" fill="white" transform="translate(13 3)"/>
</clipPath>
</defs>
</svg>
