<svg width="50" height="30" viewBox="0 0 50 30" fill="none" xmlns="http://www.w3.org/2000/svg">
<rect width="50" height="30" rx="2" fill="#ECF0F3"/>
<g clip-path="url(#clip0_737_2535)">
<path d="M21.4854 8.92606H28.4884V21.0795H21.4854V8.92606Z" fill="#FF5F00"/>
<path d="M21.9304 15.0028C21.9304 12.5335 23.1309 10.3433 24.9761 8.92606C23.62 7.8954 21.9082 7.27272 20.0407 7.27272C15.6164 7.27272 12.0371 10.7297 12.0371 15.0028C12.0371 19.2759 15.6164 22.7329 20.0406 22.7329C21.9081 22.7329 23.6199 22.1103 24.9761 21.0795C23.1309 19.6838 21.9304 17.4721 21.9304 15.0028Z" fill="#EB001B"/>
<path d="M37.937 15.0028C37.937 19.2758 34.3577 22.7329 29.9335 22.7329C28.066 22.7329 26.3542 22.1103 24.998 21.0795C26.8655 19.6624 28.0438 17.4721 28.0438 15.0028C28.0438 12.5335 26.8432 10.3433 24.998 8.92606C26.3541 7.8954 28.066 7.27272 29.9335 7.27272C34.3577 7.27272 37.937 10.7513 37.937 15.0028Z" fill="#F79E1B"/>
</g>
<defs>
<clipPath id="clip0_737_2535">
<rect width="25.9259" height="15.4545" fill="white" transform="translate(12.0371 7.27272)"/>
</clipPath>
</defs>
</svg>
