<svg width="50" height="30" viewBox="0 0 50 30" fill="none" xmlns="http://www.w3.org/2000/svg">
<rect width="50" height="30" rx="2" fill="#ECF0F3"/>
<g clip-path="url(#clip0_737_2534)">
<path d="M38.8763 20.0709L38.5679 18.5322H35.1131L34.5636 20.0585L31.7948 20.0656C33.5756 15.8091 34.8968 12.655 35.7583 10.6034C35.9816 10.0669 36.3864 9.79927 36.9725 9.80045C37.4228 9.80399 38.1584 9.80399 39.1794 9.80045L41.3189 20.0673L38.8763 20.0709ZM35.8912 16.424H38.1176L37.2845 12.5684L35.8912 16.424ZM18.0483 9.79868L20.8313 9.80222L16.5292 20.0709L13.7107 20.0691C12.7583 16.4069 12.0587 13.692 11.612 11.9246C11.4755 11.3816 11.2043 11.0031 10.6796 10.8245C10.214 10.6641 9.43701 10.4171 8.34863 10.0834V9.80045H12.7961C13.5654 9.80045 14.0139 10.1719 14.1592 10.9324L15.2582 16.7494L18.0483 9.79868ZM24.6548 9.80222L22.4567 20.0691L19.8067 20.0656L22.0047 9.79868L24.6548 9.80222ZM30.0293 9.61121C30.8198 9.61121 31.8196 9.85528 32.3939 10.0834L31.9295 12.2129C31.4101 12.0042 30.5557 11.723 29.8378 11.7353C28.792 11.7512 28.1468 12.1881 28.1468 12.6073C28.1468 13.2864 29.267 13.6295 30.4228 14.3741C31.7398 15.2231 31.9118 15.9836 31.8976 16.8113C31.8781 18.5286 30.4228 20.223 27.3509 20.223C25.9487 20.2018 25.4436 20.085 24.302 19.6818L24.7841 17.4604C25.947 17.945 26.4415 18.0989 27.4342 18.0989C28.3471 18.0989 29.1288 17.7328 29.1359 17.0943C29.1394 16.6397 28.8611 16.4151 27.8383 15.8527C26.8155 15.2903 25.3815 14.5156 25.401 12.9521C25.4241 10.9536 27.3296 9.61121 30.0293 9.61121Z" fill="#017EFE"/>
</g>
<defs>
<clipPath id="clip0_737_2534">
<rect width="33.6364" height="26.3636" fill="white" transform="translate(8.18164 1.81818)"/>
</clipPath>
</defs>
</svg>
